# Wavefront OBJ file made by Mineways version 11.04, http://mineways.com
# World: TestWorld
# Terrain file name: D:\Work\Repositories\raulssorban\Carbon.Servers\mineways\terrainExt.png
# Color scheme: Standard
# Wed Nov 22 15:10:12 2023

# Selection location min to max: -264, 94, 172 to -264, 94, 172
#   Non-empty selection location min to max: -264, 94, 172 to -264, 94, 172

# Set render type: Wavefront OBJ relative indices
# Units for the model vertex data itself: meters

# 4 vertices, 2 faces (4 triangles), 0 blocks, 1 billboards/bits
# block dimensions: X=2 by Y=2 (height) by Z=2 blocks
# Elevation shading: no
# Lighting: no
# Transparent water: no
# Map grid: no
# File type: Export all textures to three large images
# Texture output RGB: no
# Texture output A: no
# Texture output RGBA: no
# OBJ relative coordinates
# Export separate types: no
# Export individual blocks: YES
#   Material per family: YES
#   Split by block type: YES
# Make groups objects: YES
# Custom material: no
# Export lesser blocks: YES
# Fatten lesser blocks: no
# Simplify mesh: no
# Double all billboard faces: YES
# Create composite overlay faces: no
# Center model: YES
# Use biomes: no
# Create block faces at the borders: YES
# Tree leaves solid: no
# Rotate model 0.000000 degrees
# Make Z the up direction instead of Y: no
# Scale model by making each block 1000 mm high
# Data operation options:
#   Fill air bubbles: no; Seal off entrances: no; Fill in isolated tunnels in base of model: no
#   Connect parts sharing an edge: YES; Connect corner tips: YES; Weld all shared edges: YES
#   Delete floating objects: trees and parts smaller than 16 blocks: no
#   Hollow out bottom of model, making the walls 1000 mm thick: no; Superhollow: no
# Melt snow blocks: no
#   Debug: show separate parts as colors: no
#   Debug: show weld blocks in bright colors: no

# Cleanup processing summary:
#   Solid parts: 0
#   Total solid parts merged: 0
#   Number of edge passes made: 1
#     Edges found to fix: 0
#     Weld blocks added: 0
#     Tip blocks added: 0

# Full world path: D:\Minecraft\instances\1.20.1\.minecraft\saves\TestWorld
# Full terrainExt.png path: D:\Work\Repositories\raulssorban\Carbon.Servers\mineways\terrainExt.png
# Full current path: D:\Work\Repositories\raulssorban\Carbon.Servers\mineways

mtllib ladder.mtl
vn -1 0 0
vn 0 -1 0
vn 0 0 -1
vn 1 0 0
vn 0 1 0
vn 0 0 1
vn -0.707107 0 -0.707107
vn -0.707107 0 0.707107
vn 0.707107 0 -0.707107
vn 0.707107 0 0.707107
vn -0.707107 -0.707107 0
vn 0 -0.707107 -0.707107
vn 0.707107 -0.707107 0
vn 0 -0.707107 0.707107
vn -0.707107 0.707107 0
vn 0 0.707107 -0.707107
vn 0.707107 0.707107 0
vn 0 0.707107 0.707107
vn -0.92388 0 -0.382683
vn -0.92388 0 0.382683
vn 0.92388 0 -0.382683
vn 0.92388 0 0.382683
vn -0.382683 0 -0.92388
vn -0.382683 0 0.92388
vn 0.382683 0 -0.92388
vn 0.382683 0 0.92388
vn -0.397273 0.9177 0
vn 0.397273 -0.9177 0
vn 0.397273 0.9177 0
vn -0.397273 -0.9177 0
vn 0 0.9177 -0.397273
vn 0 -0.9177 0.397273
vn 0 0.9177 0.397273
vn 0 -0.9177 -0.397273
vn -0.440932 0.897541 0
vn 0.440932 -0.897541 0
vn 0.440932 0.897541 0
vn -0.440932 -0.897541 0
vn 0 0.897541 -0.440932
vn 0 -0.897541 0.440932
vn 0 0.897541 0.440932
vn 0 -0.897541 -0.440932
# ladder
vt 0.475585938 0.965820312
vt 0.491210938 0.965820312
vt 0.491210938 0.981445312
vt 0.475585938 0.981445312
v 1 0 0.9375
v 0 0 0.9375
v 0 1 0.9375
v 1 1 0.9375

usemtl Ladder
o block_00001
g block_00001
f -3/-3/-40 -2/-2/-40 -1/-1/-40 -4/-4/-40
f -1/-1/-37 -2/-2/-37 -3/-3/-37 -4/-4/-37
