# Wavefront OBJ file made by Mineways version 11.04, http://mineways.com
# World: TestWorld
# Terrain file name: D:\Work\Repositories\raulssorban\Carbon.Servers\mineways\terrainExt.png
# Color scheme: Standard
# Wed Nov 22 03:31:07 2023

# Selection location min to max: -264, 94, 173 to -264, 319, 173
#   Non-empty selection location min to max: -264, 94, 173 to -264, 95, 173

# Set render type: Wavefront OBJ relative indices
# Units for the model vertex data itself: meters

# 16 vertices, 12 faces (24 triangles), 0 blocks, 2 billboards/bits
# block dimensions: X=2 by Y=3 (height) by Z=2 blocks
# Elevation shading: no
# Lighting: no
# Transparent water: no
# Map grid: no
# File type: Export all textures to three large images
# Texture output RGB: no
# Texture output A: no
# Texture output RGBA: YES
# OBJ relative coordinates
# Export separate types: no
# Export individual blocks: YES
#   Material per family: YES
#   Split by block type: YES
# Make groups objects: YES
# Custom material: YES
# Export lesser blocks: YES
# Fatten lesser blocks: no
# Simplify mesh: no
# Double all billboard faces: YES
# Create composite overlay faces: no
# Center model: YES
# Use biomes: no
# Create block faces at the borders: YES
# Tree leaves solid: no
# Rotate model 0.000000 degrees
# Make Z the up direction instead of Y: no
# Scale model by making each block 1000 mm high
# Data operation options:
#   Fill air bubbles: no; Seal off entrances: no; Fill in isolated tunnels in base of model: no
#   Connect parts sharing an edge: no; Connect corner tips: no; Weld all shared edges: no
#   Delete floating objects: trees and parts smaller than 16 blocks: no
#   Hollow out bottom of model, making the walls 1000 mm thick: no; Superhollow: no
# Melt snow blocks: no
#   Debug: show separate parts as colors: no
#   Debug: show weld blocks in bright colors: no

# Full world path: D:\Minecraft\instances\1.20.1\.minecraft\saves\TestWorld
# Full terrainExt.png path: D:\Work\Repositories\raulssorban\Carbon.Servers\mineways\terrainExt.png
# Full current path: D:\Work\Repositories\raulssorban\Carbon.Servers\mineways

mtllib oak_door.mtl
vn -1 0 0
vn 0 -1 0
vn 0 0 -1
vn 1 0 0
vn 0 1 0
vn 0 0 1
vn -0.707107 0 -0.707107
vn -0.707107 0 0.707107
vn 0.707107 0 -0.707107
vn 0.707107 0 0.707107
vn -0.707107 -0.707107 0
vn 0 -0.707107 -0.707107
vn 0.707107 -0.707107 0
vn 0 -0.707107 0.707107
vn -0.707107 0.707107 0
vn 0 0.707107 -0.707107
vn 0.707107 0.707107 0
vn 0 0.707107 0.707107
vn -0.92388 0 -0.382683
vn -0.92388 0 0.382683
vn 0.92388 0 -0.382683
vn 0.92388 0 0.382683
vn -0.382683 0 -0.92388
vn -0.382683 0 0.92388
vn 0.382683 0 -0.92388
vn 0.382683 0 0.92388
vn -0.397273 0.9177 0
vn 0.397273 -0.9177 0
vn 0.397273 0.9177 0
vn -0.397273 -0.9177 0
vn 0 0.9177 -0.397273
vn 0 -0.9177 0.397273
vn 0 0.9177 0.397273
vn 0 -0.9177 -0.397273
vn -0.440932 0.897541 0
vn 0.440932 -0.897541 0
vn 0.440932 0.897541 0
vn -0.440932 -0.897541 0
vn 0 0.897541 -0.440932
vn 0 -0.897541 0.440932
vn 0 0.897541 0.440932
vn 0 -0.897541 -0.440932
# oak_door_bottom
vt 0.734375000 0.965820312
vt 0.737304688 0.965820312
vt 0.737304688 0.981445312
vt 0.734375000 0.981445312
vt 0.721679688 0.965820312
vt 0.737304688 0.968750000
vt 0.721679688 0.968750000
vt 0.721679688 0.981445312
vt 0.724609375 0.965820312
vt 0.724609375 0.981445312
# oak_door_top
vt 0.440429688 0.981445312
vt 0.456054688 0.981445312
vt 0.456054688 0.978515625
vt 0.440429688 0.978515625
vt 0.453125000 0.965820312
vt 0.456054688 0.965820312
vt 0.453125000 0.981445312
vt 0.440429688 0.965820312
vt 0.443359375 0.965820312
vt 0.443359375 0.981445312
v 0 0 0.8125
v 0 0 1
v 0 1 0.8125
v 0 1 1
v 1 0 0.8125
v 1 0 1
v 1 1 0.8125
v 1 1 1
v 0 1 0.8125
v 0 1 1
v 0 2 0.8125
v 0 2 1
v 1 1 0.8125
v 1 1 1
v 1 2 0.8125
v 1 2 1

usemtl Oak_Door
o block_00001
g block_00001
f -14/-17/-42 -16/-20/-42 -15/-19/-42 -13/-18/-42
f -15/-14/-41 -16/-16/-41 -12/-19/-41 -11/-15/-41
f -10/-18/-40 -12/-19/-40 -16/-16/-40 -14/-13/-40
f -10/-11/-39 -9/-13/-39 -11/-16/-39 -12/-12/-39
f -10/-8/-38 -14/-7/-38 -13/-10/-38 -9/-9/-38
f -9/-18/-37 -13/-13/-37 -15/-16/-37 -11/-19/-37
o block_00002
g block_00002
f -6/-4/-42 -8/-6/-42 -7/-5/-42 -5/-9/-42
f -7/-14/-41 -8/-16/-41 -4/-19/-41 -3/-15/-41
f -2/-9/-40 -4/-5/-40 -8/-3/-40 -6/-10/-40
f -2/-1/-39 -1/-10/-39 -3/-3/-39 -4/-2/-39
f -2/-8/-38 -6/-7/-38 -5/-10/-38 -1/-9/-38
f -1/-9/-37 -5/-10/-37 -7/-3/-37 -3/-5/-37
