# Wavefront OBJ file made by Mineways version 11.04, http://mineways.com
# World: TestWorld
# Terrain file name: D:\Work\Repositories\raulssorban\Carbon.Servers\mineways\terrainExt.png
# Color scheme: Standard
# Wed Nov 22 22:02:41 2023

# Selection location min to max: -264, 94, 173 to -264, 94, 173
#   Non-empty selection location min to max: -264, 94, 173 to -264, 94, 173

# Set render type: Wavefront OBJ absolute indices
# Units for the model vertex data itself: meters

# 64 vertices, 40 faces (80 triangles), 0 blocks, 8 billboards/bits
# block dimensions: X=2 by Y=2 (height) by Z=2 blocks
# Elevation shading: no
# Lighting: no
# Transparent water: no
# Map grid: no
# File type: Export all textures to three large images
# Texture output RGB: no
# Texture output A: no
# Texture output RGBA: no
# Export separate types: YES
# Export individual blocks: no
#   Material per family: YES
#   Split by block type: YES
# Make groups objects: no
# Custom material: YES
# Export lesser blocks: YES
# Fatten lesser blocks: no
# Simplify mesh: no
# Double all billboard faces: YES
# Create composite overlay faces: no
# Center model: YES
# Use biomes: no
# Create block faces at the borders: YES
# Tree leaves solid: no
# Rotate model 0.000000 degrees
# Make Z the up direction instead of Y: no
# Scale model by making each block 1000 mm high
# Data operation options:
#   Fill air bubbles: no; Seal off entrances: no; Fill in isolated tunnels in base of model: no
#   Connect parts sharing an edge: no; Connect corner tips: no; Weld all shared edges: no
#   Delete floating objects: trees and parts smaller than 16 blocks: no
#   Hollow out bottom of model, making the walls 1000 mm thick: no; Superhollow: no
# Melt snow blocks: no
#   Debug: show separate parts as colors: no
#   Debug: show weld blocks in bright colors: no

# Full world path: D:\Minecraft\instances\1.20.1\.minecraft\saves\TestWorld
# Full terrainExt.png path: D:\Work\Repositories\raulssorban\Carbon.Servers\mineways\terrainExt.png
# Full current path: D:\Work\Repositories\raulssorban\Carbon.Servers\mineways

mtllib oak_fence_gate_open.mtl

o TestWorld__-264_94_173_to_-264_94_173
vn -1 0 0
vn 0 -1 0
vn 0 0 -1
vn 1 0 0
vn 0 1 0
vn 0 0 1
vn -0.707107 0 -0.707107
vn -0.707107 0 0.707107
vn 0.707107 0 -0.707107
vn 0.707107 0 0.707107
vn -0.707107 -0.707107 0
vn 0 -0.707107 -0.707107
vn 0.707107 -0.707107 0
vn 0 -0.707107 0.707107
vn -0.707107 0.707107 0
vn 0 0.707107 -0.707107
vn 0.707107 0.707107 0
vn 0 0.707107 0.707107
vn -0.92388 0 -0.382683
vn -0.92388 0 0.382683
vn 0.92388 0 -0.382683
vn 0.92388 0 0.382683
vn -0.382683 0 -0.92388
vn -0.382683 0 0.92388
vn 0.382683 0 -0.92388
vn 0.382683 0 0.92388
vn -0.397273 0.9177 0
vn 0.397273 -0.9177 0
vn 0.397273 0.9177 0
vn -0.397273 -0.9177 0
vn 0 0.9177 -0.397273
vn 0 -0.9177 0.397273
vn 0 0.9177 0.397273
vn 0 -0.9177 -0.397273
vn -0.440932 0.897541 0
vn 0.440932 -0.897541 0
vn 0.440932 0.897541 0
vn -0.440932 -0.897541 0
vn 0 0.897541 -0.440932
vn 0 -0.897541 0.440932
vn 0 0.897541 0.440932
vn 0 -0.897541 -0.440932
# oak_planks
vt 0.078125000 0.988281250
vt 0.080078125 0.988281250
vt 0.080078125 0.999023438
vt 0.078125000 0.999023438
vt 0.071289062 0.990234375
vt 0.073242188 0.990234375
vt 0.073242188 0.992187500
vt 0.071289062 0.992187500
vt 0.084960938 0.988281250
vt 0.086914062 0.988281250
vt 0.086914062 0.999023438
vt 0.084960938 0.999023438
vt 0.071289062 0.988281250
vt 0.073242188 0.988281250
vt 0.073242188 0.999023438
vt 0.071289062 0.999023438
vt 0.084960938 0.990234375
vt 0.086914062 0.990234375
vt 0.086914062 0.992187500
vt 0.084960938 0.992187500
vt 0.080078125 0.989257812
vt 0.086914062 0.989257812
vt 0.080078125 0.992187500
vt 0.071289062 0.983398438
vt 0.073242188 0.983398438
vt 0.071289062 0.989257812
vt 0.078125000 0.989257812
vt 0.078125000 0.992187500
vt 0.073242188 0.989257812
vt 0.080078125 0.995117188
vt 0.086914062 0.995117188
vt 0.086914062 0.998046875
vt 0.080078125 0.998046875
vt 0.071289062 0.995117188
vt 0.078125000 0.995117188
vt 0.078125000 0.998046875
vt 0.071289062 0.998046875
vt 0.073242188 0.995117188
vt 0.073242188 0.998046875
vt 0.084960938 0.983398438
vt 0.086914062 0.983398438
vt 0.084960938 0.989257812
vt 0.084960938 0.995117188
vt 0.084960938 0.998046875
v 0 0.3125 0.4375
v 0 0.3125 0.5625
v 0 1 0.4375
v 0 1 0.5625
v 0.125 0.3125 0.4375
v 0.125 0.3125 0.5625
v 0.125 1 0.4375
v 0.125 1 0.5625
v 0.875 0.3125 0.4375
v 0.875 0.3125 0.5625
v 0.875 1 0.4375
v 0.875 1 0.5625
v 1 0.3125 0.4375
v 1 0.3125 0.5625
v 1 1 0.4375
v 1 1 0.5625
v 0 0.375 0.5625
v 0 0.375 1
v 0 0.5625 0.5625
v 0 0.5625 1
v 0.125 0.375 0.5625
v 0.125 0.375 1
v 0.125 0.5625 0.5625
v 0.125 0.5625 1
v 0 0.75 0.5625
v 0 0.75 1
v 0 0.9375 0.5625
v 0 0.9375 1
v 0.125 0.75 0.5625
v 0.125 0.75 1
v 0.125 0.9375 0.5625
v 0.125 0.9375 1
v 0.875 0.375 0.5625
v 0.875 0.375 1
v 0.875 0.5625 0.5625
v 0.875 0.5625 1
v 1 0.375 0.5625
v 1 0.375 1
v 1 0.5625 0.5625
v 1 0.5625 1
v 0.875 0.75 0.5625
v 0.875 0.75 1
v 0.875 0.9375 0.5625
v 0.875 0.9375 1
v 1 0.75 0.5625
v 1 0.75 1
v 1 0.9375 0.5625
v 1 0.9375 1
v 0 0.5625 0.875
v 0 0.5625 1
v 0 0.75 0.875
v 0 0.75 1
v 0.125 0.5625 0.875
v 0.125 0.5625 1
v 0.125 0.75 0.875
v 0.125 0.75 1
v 0.875 0.5625 0.875
v 0.875 0.5625 1
v 0.875 0.75 0.875
v 0.875 0.75 1
v 1 0.5625 0.875
v 1 0.5625 1
v 1 0.75 0.875
v 1 0.75 1

g Fence_Gate
usemtl Fence_Gate
f 3/4/1 1/1/1 2/2/1 4/3/1
f 2/8/2 1/5/2 5/6/2 6/7/2
f 7/12/3 5/9/3 1/10/3 3/11/3
f 7/3/4 8/4/4 6/1/4 5/2/4
f 7/7/5 3/8/5 4/5/5 8/6/5
f 8/15/6 4/16/6 2/13/6 6/14/6
f 11/4/1 9/1/1 10/2/1 12/3/1
f 10/20/2 9/17/2 13/18/2 14/19/2
f 15/16/3 13/13/3 9/14/3 11/15/3
f 15/3/4 16/4/4 14/1/4 13/2/4
f 15/19/5 11/20/5 12/17/5 16/18/5
f 16/11/6 12/12/6 10/9/6 14/10/6
f 19/23/1 17/21/1 18/22/1 20/19/1
f 18/5/2 17/24/2 21/25/2 22/6/2
f 23/28/4 24/8/4 22/26/4 21/27/4
f 23/6/5 19/5/5 20/24/5 24/25/5
f 24/7/6 20/8/6 18/26/6 22/29/6
f 27/33/1 25/30/1 26/31/1 28/32/1
f 26/5/2 25/24/2 29/25/2 30/6/2
f 31/36/4 32/37/4 30/34/4 29/35/4
f 31/6/5 27/5/5 28/24/5 32/25/5
f 32/39/6 28/37/6 26/34/6 30/38/6
f 35/23/1 33/21/1 34/22/1 36/19/1
f 34/17/2 33/40/2 37/41/2 38/18/2
f 39/28/4 40/8/4 38/26/4 37/27/4
f 39/18/5 35/17/5 36/40/5 40/41/5
f 40/19/6 36/20/6 34/42/6 38/22/6
f 43/33/1 41/30/1 42/31/1 44/32/1
f 42/17/2 41/40/2 45/41/2 46/18/2
f 47/36/4 48/37/4 46/34/4 45/35/4
f 47/18/5 43/17/5 44/40/5 48/41/5
f 48/32/6 44/44/6 42/43/6 46/31/6
f 51/43/1 49/20/1 50/19/1 52/31/1
f 55/43/3 53/20/3 49/19/3 51/31/3
f 55/38/4 56/34/4 54/8/4 53/7/4
f 56/38/6 52/34/6 50/8/6 54/7/6
f 59/43/1 57/20/1 58/19/1 60/31/1
f 63/34/3 61/8/3 57/7/3 59/38/3
f 63/38/4 64/34/4 62/8/4 61/7/4
f 64/31/6 60/43/6 58/20/6 62/19/6
