# Wavefront OBJ file made by Mineways version 11.04, http://mineways.com
# World: TestWorld
# Terrain file name: D:\Work\Repositories\raulssorban\Carbon.Servers\mineways\terrainExt.png
# Color scheme: Standard
# Sun Nov 26 21:51:41 2023

# Selection location min to max: -264, 94, 173 to -264, 94, 173
#   Non-empty selection location min to max: -264, 94, 173 to -264, 94, 173

# Set render type: Wavefront OBJ absolute indices
# Units for the model vertex data itself: meters

# 32 vertices, 21 faces (42 triangles), 0 blocks, 4 billboards/bits
# block dimensions: X=2 by Y=2 (height) by Z=2 blocks
# Elevation shading: no
# Lighting: no
# Transparent water: no
# Map grid: no
# File type: Export all textures to three large images
# Texture output RGB: no
# Texture output A: no
# Texture output RGBA: no
# Export separate types: YES
# Export individual blocks: no
#   Material per family: YES
#   Split by block type: YES
# Make groups objects: no
# Custom material: YES
# Export lesser blocks: YES
# Fatten lesser blocks: no
# Simplify mesh: no
# Double all billboard faces: no
# Create composite overlay faces: no
# Center model: YES
# Use biomes: no
# Create block faces at the borders: YES
# Tree leaves solid: no
# Rotate model 0.000000 degrees
# Make Z the up direction instead of Y: no
# Scale model by making each block 1000 mm high
# Data operation options:
#   Fill air bubbles: no; Seal off entrances: no; Fill in isolated tunnels in base of model: no
#   Connect parts sharing an edge: no; Connect corner tips: no; Weld all shared edges: no
#   Delete floating objects: trees and parts smaller than 16 blocks: no
#   Hollow out bottom of model, making the walls 1000 mm thick: no; Superhollow: no
# Melt snow blocks: no
#   Debug: show separate parts as colors: no
#   Debug: show weld blocks in bright colors: no

# Full world path: D:\Minecraft\instances\1.20.1\.minecraft\saves\TestWorld
# Full terrainExt.png path: D:\Work\Repositories\raulssorban\Carbon.Servers\mineways\terrainExt.png
# Full current path: D:\Work\Repositories\raulssorban\Carbon.Servers\mineways

mtllib repair_bench.mtl

o TestWorld__-264_94_173_to_-264_94_173
vn -1 0 0
vn 0 -1 0
vn 0 0 -1
vn 1 0 0
vn 0 1 0
vn 0 0 1
vn -0.707107 0 -0.707107
vn -0.707107 0 0.707107
vn 0.707107 0 -0.707107
vn 0.707107 0 0.707107
vn -0.707107 -0.707107 0
vn 0 -0.707107 -0.707107
vn 0.707107 -0.707107 0
vn 0 -0.707107 0.707107
vn -0.707107 0.707107 0
vn 0 0.707107 -0.707107
vn 0.707107 0.707107 0
vn 0 0.707107 0.707107
vn -0.92388 0 -0.382683
vn -0.92388 0 0.382683
vn 0.92388 0 -0.382683
vn 0.92388 0 0.382683
vn -0.382683 0 -0.92388
vn -0.382683 0 0.92388
vn 0.382683 0 -0.92388
vn 0.382683 0 0.92388
vn -0.397273 0.9177 0
vn 0.397273 -0.9177 0
vn 0.397273 0.9177 0
vn -0.397273 -0.9177 0
vn 0 0.9177 -0.397273
vn 0 -0.9177 0.397273
vn 0 0.9177 0.397273
vn 0 -0.9177 -0.397273
vn -0.440932 0.897541 0
vn 0.440932 -0.897541 0
vn 0.440932 0.897541 0
vn -0.440932 -0.897541 0
vn 0 0.897541 -0.440932
vn 0 -0.897541 0.440932
vn 0 0.897541 0.440932
vn 0 -0.897541 -0.440932
# anvil
vt 0.827148438 0.940429688
vt 0.842773438 0.940429688
vt 0.842773438 0.946289062
vt 0.827148438 0.946289062
vt 0.830078125 0.930664062
vt 0.839843750 0.930664062
vt 0.839843750 0.946289062
vt 0.830078125 0.946289062
vt 0.830078125 0.940429688
vt 0.839843750 0.940429688
# anvil_top
vt 0.126953125 0.913085938
vt 0.136718750 0.913085938
vt 0.136718750 0.928710938
vt 0.126953125 0.928710938
# anvil
vt 0.831054688 0.935546875
vt 0.838867188 0.935546875
vt 0.838867188 0.940429688
vt 0.831054688 0.940429688
vt 0.833007812 0.935546875
vt 0.836914062 0.935546875
vt 0.836914062 0.940429688
vt 0.833007812 0.940429688
vt 0.830078125 0.934570312
vt 0.839843750 0.934570312
vt 0.839843750 0.935546875
vt 0.830078125 0.935546875
vt 0.831054688 0.934570312
vt 0.838867188 0.934570312
vt 0.831054688 0.933593750
vt 0.838867188 0.933593750
vt 0.838867188 0.943359375
vt 0.831054688 0.943359375
vt 0.829101562 0.930664062
vt 0.840820312 0.930664062
vt 0.840820312 0.934570312
vt 0.829101562 0.934570312
vt 0.829101562 0.932617188
vt 0.840820312 0.932617188
vt 0.840820312 0.944335938
vt 0.829101562 0.944335938
v 1 0.625 0.1875
v 0 0.625 0.1875
v 1 1 0.1875
v 0 1 0.1875
v 1 0.625 0.8125
v 0 0.625 0.8125
v 1 1 0.8125
v 0 1 0.8125
v 0.75 0.3125 0.375
v 0.25 0.3125 0.375
v 0.75 0.625 0.375
v 0.25 0.625 0.375
v 0.75 0.3125 0.625
v 0.25 0.3125 0.625
v 0.75 0.625 0.625
v 0.25 0.625 0.625
v 0.8125 0.25 0.25
v 0.1875 0.25 0.25
v 0.8125 0.3125 0.25
v 0.1875 0.3125 0.25
v 0.8125 0.25 0.75
v 0.1875 0.25 0.75
v 0.8125 0.3125 0.75
v 0.1875 0.3125 0.75
v 0.875 0 0.125
v 0.125 0 0.125
v 0.875 0.25 0.125
v 0.125 0.25 0.125
v 0.875 0 0.875
v 0.125 0 0.875
v 0.875 0.25 0.875
v 0.125 0.25 0.875

g Anvil
usemtl Anvil
f 3/4/3 1/1/3 2/2/3 4/3/3
f 2/8/2 1/5/2 5/6/2 6/7/2
f 3/7/4 7/8/4 5/9/4 1/10/4
f 7/3/6 8/4/6 6/1/6 5/2/6
f 7/13/5 3/14/5 4/11/5 8/12/5
f 4/8/1 2/9/1 6/10/1 8/7/1
f 11/18/3 9/15/3 10/16/3 12/17/3
f 11/21/4 15/22/4 13/19/4 9/20/4
f 15/17/6 16/18/6 14/15/6 13/16/6
f 12/22/1 10/19/1 14/20/1 16/21/1
f 19/26/3 17/23/3 18/24/3 20/25/3
f 19/16/4 23/15/4 21/27/4 17/28/4
f 23/25/6 24/26/6 22/23/6 21/24/6
f 23/31/5 19/32/5 20/29/5 24/30/5
f 20/15/1 18/27/1 22/28/1 24/16/1
f 27/36/3 25/33/3 26/34/3 28/35/3
f 26/40/2 25/37/2 29/38/2 30/39/2
f 27/35/4 31/36/4 29/33/4 25/34/4
f 31/35/6 32/36/6 30/33/6 29/34/6
f 31/39/5 27/40/5 28/37/5 32/38/5
f 28/36/1 26/33/1 30/34/1 32/35/1
